<svg xmlns="http://www.w3.org/2000/svg" viewBox="0 0 512 512"><path fill="#264DE4" d="M71.357 460.819L30.272 0h451.456l-41.129 460.746L255.724 512z"/><path fill="#2965F1" d="M405.388 431.408l35.148-393.73H256v435.146z"/><path fill="#EBEBEB" d="M124.46 208.59l5.065 56.517H256V208.59zM119.419 150.715H256V94.197H114.281zM256 355.372l-.248.066-62.944-16.996-4.023-45.076h-56.736l7.919 88.741 115.772 32.14.26-.073z"/><path fill="#fff" d="M255.805 208.59v56.517h69.806l-6.583 73.705-63.223 17.062v59.037l116.134-32.213.85-9.549 13.316-149.329 1.382-15.23h-131.682zM255.805 94.197v56.518h137.239l1.142-12.823 2.599-29.191 1.138-14.504z"/></svg>