<svg xmlns="http://www.w3.org/2000/svg" viewBox="0 0 100 100"><path fill-rule="evenodd" clip-rule="evenodd" d="M50 3.75C24.25 3.75 3.75 24.25 3.75 50c0 20.6 13.35 38.087 31.888 44.275 2.325.425 3.175-1.012 3.175-2.238 0-1.1-.038-4.012-.063-7.875-12.963 2.813-15.7-6.25-15.7-6.25-2.125-5.375-5.188-6.813-5.188-6.813-4.237-2.9.325-2.837.325-2.837 4.687.325 7.15 4.812 7.15 4.812 4.163 7.138 10.913 5.075 13.575 3.875.425-3.025 1.625-5.075 2.963-6.238-10.35-1.175-21.238-5.175-21.238-23.037 0-5.088 1.813-9.25 4.8-12.513-.487-1.175-2.075-5.913.45-12.325 0 0 3.913-1.25 12.813 4.775a44.718 44.718 0 0 1 11.725-1.587c3.975.025 7.975.537 11.725 1.587 8.888-6.025 12.788-4.775 12.788-4.775 2.537 6.413.95 11.15.475 12.325 2.987 3.263 4.788 7.425 4.788 12.513 0 17.912-10.913 21.85-21.313 23 1.675 1.438 3.163 4.287 3.163 8.637 0 6.238-.063 11.275-.063 12.813 0 1.25.838 2.7 3.2 2.238C82.913 88.075 96.25 70.6 96.25 50c0-25.75-20.5-46.25-46.25-46.25z"/></svg>